<?xml version="1.0" encoding="UTF-8"?><svg xmlns="http://www.w3.org/2000/svg" width="1080" height="1920" viewBox="0 0 1080 1920">
<defs><linearGradient id="sky" x1="0" y1="0" x2="0" y2="1"><stop offset="0" stop-color="#78c0ef"/><stop offset=".46" stop-color="#f8dcb9"/><stop offset="1" stop-color="#fff2cf"/></linearGradient><radialGradient id="sun" cx="73%" cy="18%" r="42%"><stop offset="0" stop-color="#ffd677" stop-opacity=".78"/><stop offset=".45" stop-color="#ffd677" stop-opacity=".22"/><stop offset="1" stop-color="#ffd677" stop-opacity="0"/></radialGradient></defs>
<rect width="1080" height="1920" fill="url(#sky)"/><rect width="1080" height="1920" fill="url(#sun)"/>
<polygon points="0,650 130,560 270,630 430,535 590,660 750,545 930,640 1080,565 1080,1920 0,1920" fill="#589a92" opacity=".38"/><polygon points="0,760 190,680 360,735 540,655 720,748 905,665 1080,728 1080,1920 0,1920" fill="#438084" opacity=".48"/>
<rect x="-45" y="655" width="68" height="145" rx="8" fill="#648e9e" opacity=".34"/><rect x="60" y="606" width="99" height="194" rx="8" fill="#7e9aa2" opacity=".34"/><rect x="165" y="557" width="130" height="243" rx="8" fill="#648e9e" opacity=".34"/><rect x="270" y="508" width="91" height="292" rx="8" fill="#7e9aa2" opacity=".34"/><rect x="375" y="619" width="122" height="181" rx="8" fill="#648e9e" opacity=".34"/><rect x="480" y="570" width="83" height="230" rx="8" fill="#7e9aa2" opacity=".34"/><rect x="585" y="521" width="114" height="279" rx="8" fill="#648e9e" opacity=".34"/><rect x="690" y="632" width="75" height="168" rx="8" fill="#7e9aa2" opacity=".34"/><rect x="795" y="583" width="106" height="217" rx="8" fill="#648e9e" opacity=".34"/><rect x="900" y="534" width="137" height="266" rx="8" fill="#7e9aa2" opacity=".34"/><rect x="1005" y="645" width="98" height="155" rx="8" fill="#648e9e" opacity=".34"/>
<g opacity=".72"><path d="M60 155 C260 165 390 215 520 210" fill="none" stroke="#5f707c" stroke-width="4"/><path d="M590 205 C760 170 900 160 1040 150" fill="none" stroke="#5f707c" stroke-width="4"/><polygon points="88,162 122,165 104,210" fill="#eb5b5b"/><polygon points="144,168 178,171 160,216" fill="#ffc457"/><polygon points="200,174 234,177 216,222" fill="#54b27e"/><polygon points="256,180 290,183 272,228" fill="#4e99d9"/><polygon points="312,186 346,189 328,234" fill="#eb5b5b"/><polygon points="368,192 402,195 384,240" fill="#ffc457"/><polygon points="424,198 458,201 440,246" fill="#54b27e"/><polygon points="480,204 514,207 496,252" fill="#4e99d9"/><polygon points="625,200 658,197 642,240" fill="#f5884e"/><polygon points="677,195 710,192 694,235" fill="#5cbeb1"/><polygon points="729,190 762,187 746,230" fill="#ffdc66"/><polygon points="781,185 814,182 798,225" fill="#ca71c6"/><polygon points="833,180 866,177 850,220" fill="#f5884e"/><polygon points="885,175 918,172 902,215" fill="#5cbeb1"/><polygon points="937,170 970,167 954,210" fill="#ffdc66"/><polygon points="989,165 1022,162 1006,205" fill="#ca71c6"/></g>
<rect x="0" y="1160" width="1080" height="760" fill="#e2c18d"/><line x1="0" y1="1160" x2="1080" y2="1160" stroke="#cfab7c" stroke-width="2" opacity=".48"/><line x1="0" y1="1212" x2="1080" y2="1212" stroke="#cfab7c" stroke-width="2" opacity=".48"/><line x1="0" y1="1264" x2="1080" y2="1264" stroke="#cfab7c" stroke-width="2" opacity=".48"/><line x1="0" y1="1316" x2="1080" y2="1316" stroke="#cfab7c" stroke-width="2" opacity=".48"/><line x1="0" y1="1368" x2="1080" y2="1368" stroke="#cfab7c" stroke-width="2" opacity=".48"/><line x1="0" y1="1420" x2="1080" y2="1420" stroke="#cfab7c" stroke-width="2" opacity=".48"/><line x1="0" y1="1472" x2="1080" y2="1472" stroke="#cfab7c" stroke-width="2" opacity=".48"/><line x1="0" y1="1524" x2="1080" y2="1524" stroke="#cfab7c" stroke-width="2" opacity=".48"/><line x1="0" y1="1576" x2="1080" y2="1576" stroke="#cfab7c" stroke-width="2" opacity=".48"/><line x1="0" y1="1628" x2="1080" y2="1628" stroke="#cfab7c" stroke-width="2" opacity=".48"/><line x1="0" y1="1680" x2="1080" y2="1680" stroke="#cfab7c" stroke-width="2" opacity=".48"/><line x1="0" y1="1732" x2="1080" y2="1732" stroke="#cfab7c" stroke-width="2" opacity=".48"/><line x1="0" y1="1784" x2="1080" y2="1784" stroke="#cfab7c" stroke-width="2" opacity=".48"/><line x1="0" y1="1836" x2="1080" y2="1836" stroke="#cfab7c" stroke-width="2" opacity=".48"/><line x1="0" y1="1888" x2="1080" y2="1888" stroke="#cfab7c" stroke-width="2" opacity=".48"/><line x1="-120" y1="1160" x2="160" y2="1920" stroke="#cfab7c" stroke-width="2" opacity=".35"/><line x1="60" y1="1160" x2="340" y2="1920" stroke="#cfab7c" stroke-width="2" opacity=".35"/><line x1="240" y1="1160" x2="520" y2="1920" stroke="#cfab7c" stroke-width="2" opacity=".35"/><line x1="420" y1="1160" x2="700" y2="1920" stroke="#cfab7c" stroke-width="2" opacity=".35"/><line x1="600" y1="1160" x2="880" y2="1920" stroke="#cfab7c" stroke-width="2" opacity=".35"/><line x1="780" y1="1160" x2="1060" y2="1920" stroke="#cfab7c" stroke-width="2" opacity=".35"/><line x1="960" y1="1160" x2="1240" y2="1920" stroke="#cfab7c" stroke-width="2" opacity=".35"/><line x1="1140" y1="1160" x2="1420" y2="1920" stroke="#cfab7c" stroke-width="2" opacity=".35"/>
<g><rect x="55" y="650" width="270" height="520" rx="24" fill="#ef7567"/><polygon points="31,695 190,558 349,695" fill="#ffe6a7"/><line x1="31" y1="695" x2="349" y2="695" stroke="#6b4e45" stroke-width="8" opacity=".72"/><rect x="79" y="788" width="222" height="70" rx="10" fill="#fff8de"/><rect x="79" y="788" width="37" height="70" fill="#e65356" opacity=".9"/><rect x="153" y="788" width="37" height="70" fill="#e65356" opacity=".9"/><rect x="227" y="788" width="37" height="70" fill="#e65356" opacity=".9"/><rect x="101" y="910" width="92" height="132" rx="14" fill="#587e8f" opacity=".82"/><rect x="199" y="900" width="84" height="270" rx="16" fill="#664c3e" opacity=".93"/><circle cx="261" cy="1022" r="8" fill="#ffd967"/><rect x="136" y="704" width="108" height="66" rx="18" fill="#fff8da" stroke="#815248" stroke-width="4"/><ellipse cx="190" cy="738" rx="31" ry="16" fill="#f0684b"/><path d="M172 728 Q203 704 234 728" stroke="#744a3c" stroke-width="4" fill="none"/></g>
<g><rect x="402" y="610" width="286" height="560" rx="24" fill="#efaf4a"/><polygon points="378,655 545,518 712,655" fill="#ffecb4"/><line x1="378" y1="655" x2="712" y2="655" stroke="#6b4e45" stroke-width="8" opacity=".72"/><rect x="426" y="748" width="238" height="70" rx="10" fill="#fff8de"/><rect x="426" y="748" width="39.666666666666664" height="70" fill="#e65356" opacity=".9"/><rect x="505.3333333333333" y="748" width="39.666666666666664" height="70" fill="#e65356" opacity=".9"/><rect x="584.6666666666666" y="748" width="39.666666666666664" height="70" fill="#e65356" opacity=".9"/><rect x="448" y="870" width="92" height="132" rx="14" fill="#587e8f" opacity=".82"/><rect x="562" y="860" width="84" height="310" rx="16" fill="#664c3e" opacity=".93"/><circle cx="624" cy="982" r="8" fill="#ffd967"/><rect x="491" y="664" width="108" height="66" rx="18" fill="#fff8da" stroke="#815248" stroke-width="4"/><ellipse cx="545" cy="696" rx="34" ry="20" fill="#eca942"/><rect x="522" y="696" width="48" height="14" fill="#814f32"/></g>
<g><rect x="745" y="670" width="282" height="500" rx="24" fill="#e17094"/><polygon points="721,715 886,578 1051,715" fill="#ffe7ef"/><line x1="721" y1="715" x2="1051" y2="715" stroke="#6b4e45" stroke-width="8" opacity=".72"/><rect x="769" y="808" width="234" height="70" rx="10" fill="#fff8de"/><rect x="769" y="808" width="39" height="70" fill="#e65356" opacity=".9"/><rect x="847" y="808" width="39" height="70" fill="#e65356" opacity=".9"/><rect x="925" y="808" width="39" height="70" fill="#e65356" opacity=".9"/><rect x="791" y="930" width="92" height="132" rx="14" fill="#587e8f" opacity=".82"/><rect x="901" y="920" width="84" height="250" rx="16" fill="#664c3e" opacity=".93"/><circle cx="963" cy="1042" r="8" fill="#ffd967"/><rect x="832" y="724" width="108" height="66" rx="18" fill="#fff8da" stroke="#815248" stroke-width="4"/><path d="M836 754 A34 34 0 0 1 902 754 L869 788 Z" fill="#ffcd5c"/><circle cx="873" cy="754" r="6" fill="#bf4141"/></g>
<g><rect x="250" y="1048" width="154" height="82" rx="15" fill="#ffefc4" stroke="#7a5343" stroke-width="5"/><polygon points="232,1048 327,980 422,1048" fill="#e9594f"/><rect x="276" y="1130" width="18" height="70" fill="#6f4d3f"/><rect x="360" y="1130" width="18" height="70" fill="#6f4d3f"/><circle cx="289" cy="1200" r="13" fill="#444"/><circle cx="363" cy="1200" r="13" fill="#444"/><ellipse cx="327" cy="1088" rx="34" ry="20" fill="#f4b541"/><rect x="314" y="1086" width="26" height="22" fill="#8e5033"/></g><g><rect x="614" y="1030" width="154" height="82" rx="15" fill="#ffefc4" stroke="#7a5343" stroke-width="5"/><polygon points="596,1030 691,962 786,1030" fill="#e9594f"/><rect x="640" y="1112" width="18" height="70" fill="#6f4d3f"/><rect x="724" y="1112" width="18" height="70" fill="#6f4d3f"/><circle cx="653" cy="1182" r="13" fill="#444"/><circle cx="727" cy="1182" r="13" fill="#444"/><ellipse cx="691" cy="1070" rx="34" ry="20" fill="#f4b541"/><rect x="678" y="1068" width="26" height="22" fill="#8e5033"/></g><g><rect x="860" y="1180" width="154" height="82" rx="15" fill="#ffefc4" stroke="#7a5343" stroke-width="5"/><polygon points="842,1180 937,1112 1032,1180" fill="#e9594f"/><rect x="886" y="1262" width="18" height="70" fill="#6f4d3f"/><rect x="970" y="1262" width="18" height="70" fill="#6f4d3f"/><circle cx="899" cy="1332" r="13" fill="#444"/><circle cx="973" cy="1332" r="13" fill="#444"/><ellipse cx="937" cy="1220" rx="34" ry="20" fill="#f4b541"/><rect x="924" y="1218" width="26" height="22" fill="#8e5033"/></g>
<g opacity=".86" transform="translate(-38 840) scale(1.05)"><rect x="0" y="120" width="24" height="230" fill="#614c3d"/><ellipse cx="12" cy="90" rx="82" ry="112" fill="#489f68" opacity=".82"/><ellipse cx="0" cy="62" rx="60" ry="84" fill="#5fb976" opacity=".86"/><ellipse cx="42" cy="118" rx="50" ry="68" fill="#3c8b60" opacity=".83"/></g><g opacity=".86" transform="translate(310 880) scale(0.92)"><rect x="0" y="120" width="24" height="230" fill="#614c3d"/><ellipse cx="12" cy="90" rx="82" ry="112" fill="#489f68" opacity=".82"/><ellipse cx="0" cy="62" rx="60" ry="84" fill="#5fb976" opacity=".86"/><ellipse cx="42" cy="118" rx="50" ry="68" fill="#3c8b60" opacity=".83"/></g><g opacity=".86" transform="translate(690 850) scale(1)"><rect x="0" y="120" width="24" height="230" fill="#614c3d"/><ellipse cx="12" cy="90" rx="82" ry="112" fill="#489f68" opacity=".82"/><ellipse cx="0" cy="62" rx="60" ry="84" fill="#5fb976" opacity=".86"/><ellipse cx="42" cy="118" rx="50" ry="68" fill="#3c8b60" opacity=".83"/></g><g opacity=".86" transform="translate(990 900) scale(0.9)"><rect x="0" y="120" width="24" height="230" fill="#614c3d"/><ellipse cx="12" cy="90" rx="82" ry="112" fill="#489f68" opacity=".82"/><ellipse cx="0" cy="62" rx="60" ry="84" fill="#5fb976" opacity=".86"/><ellipse cx="42" cy="118" rx="50" ry="68" fill="#3c8b60" opacity=".83"/></g><g><rect x="515" y="880" width="18" height="260" rx="8" fill="#555458"/><ellipse cx="524" cy="888" rx="40" ry="36" fill="#ffe795" opacity=".7" stroke="#595556" stroke-width="4"/></g><g><rect x="855" y="900" width="18" height="260" rx="8" fill="#555458"/><ellipse cx="864" cy="908" rx="40" ry="36" fill="#ffe795" opacity=".7" stroke="#595556" stroke-width="4"/></g>
<rect x="0" y="0" width="1080" height="1920" fill="none" stroke="#483746" stroke-width="36" opacity=".055"/>
</svg>